<?xml version="1.0" encoding="UTF-8"?>
<svg version="1.1" xmlns="http://www.w3.org/2000/svg" width="626" height="217">
<path d="M0 0 C0.99185806 -0.01283524 1.98371613 -0.02567047 3.00563049 -0.03889465 C4.08263718 -0.04628159 5.15964386 -0.05366852 6.26928711 -0.0612793 C7.93102211 -0.07338692 7.93102211 -0.07338692 9.62632751 -0.08573914 C11.9775943 -0.09959205 14.32888131 -0.11030878 16.68017578 -0.11816406 C20.25780107 -0.13531193 23.83448677 -0.17918082 27.41186523 -0.22338867 C29.69766574 -0.23352124 31.9834741 -0.24203557 34.26928711 -0.2487793 C35.86354271 -0.27504143 35.86354271 -0.27504143 37.49000549 -0.30183411 C44.14779046 -0.28262378 49.51459154 0.60702757 55.23413086 4.17700195 C58.44546221 7.54498361 59.47281294 10.12713026 59.67163086 14.67700195 C59.41970071 19.52056224 58.2875976 23.2019118 54.69897461 26.65356445 C53.25181128 27.87835044 51.74679607 29.03409935 50.23413086 30.17700195 C51.05913086 30.89887695 51.88413086 31.62075195 52.73413086 32.36450195 C56.2151485 36.50809965 55.8098279 40.92401792 55.58569336 46.11450195 C54.97522325 51.43237493 53.31168929 54.0468797 49.67163086 57.86450195 C41.38287709 64.1495872 30.93554901 63.58410464 21.03881836 63.4699707 C19.5957992 63.46436285 18.15277427 63.46009838 16.70974731 63.45710754 C12.94498419 63.44575218 9.18057832 63.41636762 5.41595459 63.38299561 C1.56112498 63.35209169 -2.29376338 63.33855917 -6.14868164 63.32348633 C-13.68790553 63.29148694 -21.22683693 63.24040631 -28.76586914 63.17700195 C-28.00082556 54.90498858 -26.77843464 46.79490063 -25.32836914 38.61450195 C-25.00255859 36.69154297 -25.00255859 36.69154297 -24.67016602 34.72973633 C-24.45553711 33.51479492 -24.2409082 32.29985352 -24.01977539 31.0480957 C-23.82714111 29.94393311 -23.63450684 28.83977051 -23.43603516 27.70214844 C-23.21488037 26.8688501 -22.99372559 26.03555176 -22.76586914 25.17700195 C-20.25460586 23.92137031 -18.57808713 24.06998623 -15.76879883 24.09521484 C-14.72721619 24.10174576 -13.68563354 24.10827667 -12.61248779 24.11500549 C-11.48232239 24.12644089 -10.35215698 24.13787628 -9.18774414 24.1496582 C-6.8062352 24.16230864 -4.4247247 24.17466929 -2.04321289 24.18676758 C1.72034509 24.21156336 5.48382306 24.23949922 9.24731445 24.27294922 C12.87313341 24.30319216 16.4988508 24.32094338 20.12475586 24.3371582 C21.24682434 24.35061783 22.36889282 24.36407745 23.52496338 24.37794495 C28.82013915 24.39491634 33.29461527 24.3569906 38.23413086 22.17700195 C38.56413086 20.52700195 38.89413086 18.87700195 39.23413086 17.17700195 C10.02913086 16.68200195 10.02913086 16.68200195 -19.76586914 16.17700195 C-17.75728123 12.15982613 -15.42001969 9.56622504 -12.26586914 6.48950195 C-11.76700195 5.9912793 -11.26813477 5.49305664 -10.75415039 4.97973633 C-6.99009698 1.26109375 -5.23511641 0.0589367 0 0 Z M-4.76586914 38.17700195 C-6.58189431 42.71532949 -6.58189431 42.71532949 -5.76586914 47.17700195 C-0.58808512 47.25131327 4.58938654 47.30568004 9.76757812 47.34179688 C11.52804982 47.35685748 13.28848416 47.37731021 15.04882812 47.40332031 C17.58334589 47.43982424 20.11736638 47.4567555 22.65209961 47.4699707 C23.82738472 47.49319649 23.82738472 47.49319649 25.02641296 47.51689148 C29.62894709 47.51830006 32.53434914 46.96874325 36.23413086 44.17700195 C35.66068149 41.30975509 35.37267936 40.31555045 33.23413086 38.17700195 C30.36524504 38.00167906 27.59420441 37.94562582 24.72631836 37.98168945 C23.88569855 37.98451935 23.04507874 37.98734924 22.1789856 37.99026489 C19.4888904 38.00147766 16.79912576 38.02658392 14.10913086 38.05200195 C12.28752108 38.06203035 10.46590609 38.07115644 8.64428711 38.0793457 C4.17410728 38.10142054 -0.29582485 38.13595761 -4.76586914 38.17700195 Z " fill="#FFFFFF" transform="translate(387.765869140625,85.822998046875)"/>
<path d="M0 0 C0.99185806 -0.01283524 1.98371613 -0.02567047 3.00563049 -0.03889465 C4.08263718 -0.04628159 5.15964386 -0.05366852 6.26928711 -0.0612793 C7.93102211 -0.07338692 7.93102211 -0.07338692 9.62632751 -0.08573914 C11.9775943 -0.09959205 14.32888131 -0.11030878 16.68017578 -0.11816406 C20.25780107 -0.13531193 23.83448677 -0.17918082 27.41186523 -0.22338867 C29.69766574 -0.23352124 31.9834741 -0.24203557 34.26928711 -0.2487793 C35.86354271 -0.27504143 35.86354271 -0.27504143 37.49000549 -0.30183411 C44.14779046 -0.28262378 49.51459154 0.60702757 55.23413086 4.17700195 C58.38484986 7.48141456 59.48020906 10.08143935 59.73413086 14.55200195 C59.42670505 20.83832964 57.11101513 25.47074352 52.48413086 29.67700195 C51.74163086 30.17200195 50.99913086 30.66700195 50.23413086 31.17700195 C51.03850586 31.94012695 51.84288086 32.70325195 52.67163086 33.48950195 C55.6391229 36.60174971 56.15188854 38.12841236 56.48413086 42.36450195 C56.07182793 48.65212168 54.66732272 53.23678215 49.92163086 57.55200195 C41.10959248 64.36886183 29.76904839 63.31665176 19.20678711 63.2746582 C17.84915723 63.27279036 16.49152667 63.27136819 15.13389587 63.27037048 C11.58131002 63.26657417 8.02876582 63.25676891 4.47619629 63.2456665 C0.84277917 63.23538997 -2.79064476 63.23085955 -6.42407227 63.22583008 C-13.53802148 63.21514373 -20.65194257 63.19810244 -27.76586914 63.17700195 C-29.00183887 59.01306538 -28.34209642 55.54226304 -27.55102539 51.34887695 C-27.41643417 50.59987122 -27.28184296 49.85086548 -27.14317322 49.0791626 C-26.71266779 46.69362328 -26.27068691 44.31037637 -25.82836914 41.92700195 C-25.53398962 40.30734819 -25.24036104 38.68755774 -24.94750977 37.06762695 C-24.22899145 33.10244826 -23.50017614 29.13928583 -22.76586914 25.17700195 C-22.19561005 25.16669449 -21.62535095 25.15638702 -21.03781128 25.14576721 C-15.0341514 25.03651685 -9.03060654 24.92203551 -3.02709961 24.8046875 C-0.79470252 24.76171345 1.43771958 24.72001705 3.67016602 24.6796875 C21.47239658 24.35901017 21.47239658 24.35901017 39.23413086 23.17700195 C39.23413086 21.19700195 39.23413086 19.21700195 39.23413086 17.17700195 C10.02913086 16.68200195 10.02913086 16.68200195 -19.76586914 16.17700195 C-17.75728123 12.15982613 -15.42001969 9.56622504 -12.26586914 6.48950195 C-11.76700195 5.9912793 -11.26813477 5.49305664 -10.75415039 4.97973633 C-6.99009698 1.26109375 -5.23511641 0.0589367 0 0 Z M-4.76586914 38.17700195 C-6.24419174 41.13364715 -5.82619697 43.91929932 -5.76586914 47.17700195 C-0.42735836 47.25121136 4.91085153 47.30563197 10.24975586 47.34179688 C12.06556428 47.35687457 13.88133633 47.37733994 15.69702148 47.40332031 C18.30844094 47.43974876 20.9193785 47.45673833 23.53100586 47.4699707 C24.34156433 47.48545456 25.1521228 47.50093842 25.98724365 47.51689148 C29.43456506 47.51791864 31.77956302 47.44830304 34.77807617 45.65869141 C35.25857422 45.16973389 35.73907227 44.68077637 36.23413086 44.17700195 C35.85508878 40.88624199 35.85508878 40.88624199 34.23413086 38.17700195 C31.34979266 38.08834988 28.48950928 38.06178899 25.60522461 38.0793457 C24.7409938 38.08076065 23.876763 38.0821756 22.98634338 38.08363342 C20.21473794 38.08924957 17.44321206 38.10180476 14.67163086 38.11450195 C12.79728306 38.11951488 10.92293401 38.12407814 9.04858398 38.12817383 C4.44373542 38.13922424 -0.16105335 38.15649966 -4.76586914 38.17700195 Z " fill="#FFFFFF" transform="translate(296.765869140625,85.822998046875)"/>
<path d="M0 0 C3.54070211 0.1248598 7.07425488 0.16392628 10.61694336 0.1875 C12.89632585 0.22418559 15.17563692 0.26569062 17.45483398 0.3125 C18.49785172 0.32949951 19.54086945 0.34649902 20.61549377 0.36401367 C29.55277399 0.70695504 38.0772799 2.32345473 44.60717773 8.8125 C47.8961959 13.08980488 48.92643614 16.76724365 48.48217773 22.125 C47.32898475 29.69135804 44.20150726 35.06138978 38.48217773 40.125 C35.11743694 42.19560972 33.41009089 43.125 29.48217773 43.125 C32.35192648 48.26704127 36.01662161 52.66529984 39.71850586 57.21679688 C43.48217773 61.91510556 43.48217773 61.91510556 43.48217773 64.125 C39.46259856 64.38787913 35.44523579 64.5466837 31.41967773 64.6875 C30.28594727 64.76291016 29.1522168 64.83832031 27.98413086 64.91601562 C19.68474146 65.13378386 19.68474146 65.13378386 16.19287109 62.20458984 C14.40486386 59.91946119 12.914767 57.64505719 11.48217773 55.125 C9.07756192 51.0062207 9.07756192 51.0062207 5.48217773 48.125 C3.44985139 48.03972372 1.41470768 48.01783865 -0.61938477 48.02734375 C-1.83110352 48.03056641 -3.04282227 48.03378906 -4.29125977 48.03710938 C-5.56227539 48.04548828 -6.83329102 48.05386719 -8.14282227 48.0625 C-10.06094727 48.06926758 -10.06094727 48.06926758 -12.01782227 48.07617188 C-15.18453519 48.08798797 -18.35115582 48.10446185 -21.51782227 48.125 C-22.61084933 51.90257472 -23.68000874 55.67177609 -24.58032227 59.5 C-25.51782227 63.125 -25.51782227 63.125 -26.51782227 64.125 C-27.8604964 64.21131874 -29.20756548 64.23206473 -30.55297852 64.22265625 C-31.36186523 64.21943359 -32.17075195 64.21621094 -33.00415039 64.21289062 C-33.85428711 64.20451172 -34.70442383 64.19613281 -35.58032227 64.1875 C-36.43432617 64.18298828 -37.28833008 64.17847656 -38.16821289 64.17382812 C-40.2847789 64.16200373 -42.40130912 64.14406769 -44.51782227 64.125 C-44.77268163 57.27668222 -43.80261744 50.91646753 -42.58032227 44.1875 C-42.39791992 43.13498047 -42.21551758 42.08246094 -42.02758789 40.99804688 C-40.65403817 33.2612159 -40.65403817 33.2612159 -39.51782227 32.125 C-37.70881712 32.01735951 -35.89566467 31.97873789 -34.08349609 31.96728516 C-32.92171341 31.95702301 -31.75993073 31.94676086 -30.5629425 31.93618774 C-29.29637314 31.92888641 -28.02980377 31.92158508 -26.72485352 31.9140625 C-24.74776942 31.89318103 -22.77068534 31.87228214 -20.79361248 31.85036278 C-15.90349456 31.7971441 -11.0133665 31.75307372 -6.12304688 31.72363281 C-3.38532951 31.70670588 -0.64789232 31.68198014 2.0896759 31.64877319 C4.67052344 31.61781283 7.25154072 31.59838744 9.83256531 31.59170532 C11.0101088 31.57513885 12.18765228 31.55857239 13.40087891 31.54150391 C14.94856209 31.52937363 14.94856209 31.52937363 16.5275116 31.51699829 C20.07021962 31.04698394 22.46684797 30.03219029 25.48217773 28.125 C26.63701212 24.62760082 26.63701212 24.62760082 26.48217773 21.125 C23.08114811 17.72397038 19.44363028 17.99165966 14.7956543 17.91967773 C13.65477356 17.89973251 12.51389282 17.87978729 11.33843994 17.85923767 C10.11227966 17.84252518 8.88611938 17.82581268 7.62280273 17.80859375 C6.36328796 17.78781265 5.10377319 17.76703156 3.80609131 17.74562073 C0.46558902 17.69133698 -2.87492449 17.64107931 -6.21551514 17.59277344 C-9.62753619 17.54244296 -13.0394705 17.4868173 -16.45141602 17.43164062 C-23.14014891 17.32454886 -29.8289469 17.2227646 -36.51782227 17.125 C-28.44267515 0.50057742 -17.33222799 -0.6162142 0 0 Z " fill="#FFFFFF" transform="translate(109.517822265625,84.875)"/>
<path d="M0 0 C0.82886719 -0.06058594 1.65773438 -0.12117188 2.51171875 -0.18359375 C6.93964255 0.79833077 9.50864502 3.02300643 12.3125 6.4375 C15.2352036 11.35133072 17.67546936 16.46339966 20.125 21.625 C20.82575351 23.07025056 21.52840204 24.51458377 22.23291016 25.95800781 C23.2833942 28.11038102 24.3329572 30.26311797 25.37652588 32.41885376 C28.19572379 38.23846796 31.14522526 43.98114182 34.1875 49.6875 C34.58557861 50.43539795 34.98365723 51.1832959 35.39379883 51.95385742 C35.75626709 52.63424072 36.11873535 53.31462402 36.4921875 54.015625 C37.09289062 55.14484375 37.69359375 56.2740625 38.3125 57.4375 C38.72757812 58.19546875 39.14265625 58.9534375 39.5703125 59.734375 C40.3125 61.4375 40.3125 61.4375 40.3125 64.4375 C16.8825 64.4375 -6.5475 64.4375 -30.6875 64.4375 C-28.73971045 59.56802611 -27.33844378 57.73231169 -23.6875 54.1875 C-22.800625 53.31609375 -21.91375 52.4446875 -21 51.546875 C-17.4995929 48.3539361 -15.67669634 48.31634244 -11.0234375 48.33984375 C-9.90195313 48.34306641 -8.78046875 48.34628906 -7.625 48.34960938 C-6.449375 48.35798828 -5.27375 48.36636719 -4.0625 48.375 C-2.87914062 48.37951172 -1.69578125 48.38402344 -0.4765625 48.38867188 C2.45317507 48.40048533 5.38281272 48.41695742 8.3125 48.4375 C7.066183 45.74823832 5.81557434 43.06111148 4.5625 40.375 C4.21445313 39.62283203 3.86640625 38.87066406 3.5078125 38.09570312 C1.31353852 33.40239489 -1.05579703 28.90072598 -3.6875 24.4375 C-15.43708208 36.03189892 -26.46736241 48.32383386 -36.76953125 61.21484375 C-38.6875 63.4375 -38.6875 63.4375 -40.6875 64.4375 C-42.3549606 64.52176094 -44.02575187 64.54475143 -45.6953125 64.53515625 C-46.68144531 64.53193359 -47.66757813 64.52871094 -48.68359375 64.52539062 C-49.71613281 64.51701172 -50.74867188 64.50863281 -51.8125 64.5 C-53.37291016 64.49323242 -53.37291016 64.49323242 -54.96484375 64.48632812 C-57.53911962 64.47451952 -60.11328146 64.45805075 -62.6875 64.4375 C-61.31044059 61.59333423 -59.94198924 59.40387871 -57.8125 57.0625 C-55.51509061 54.49927464 -53.23979626 51.92372507 -51.015625 49.296875 C-45.2331694 42.46899819 -39.31822568 35.80652181 -33.20166016 29.27587891 C-29.85164509 25.69853776 -26.57340178 22.07507898 -23.36328125 18.37109375 C-7.78252456 0.39329757 -7.78252456 0.39329757 0 0 Z " fill="#FFFFFF" transform="translate(219.6875,84.5625)"/>
<path d="M0 0 C1.59704143 0.02243628 3.19416657 0.03949194 4.7913208 0.05145264 C8.95613532 0.09685349 13.11577026 0.21431549 17.27856445 0.34790039 C21.54176771 0.47159575 25.80582464 0.5256594 30.0703125 0.5859375 C38.40860368 0.71388895 46.74271676 0.91813613 55.078125 1.171875 C54.66566528 1.64682404 54.25320557 2.12177307 53.82824707 2.6111145 C53.28744507 3.23718597 52.74664307 3.86325745 52.18945312 4.50830078 C51.38513855 5.43728683 51.38513855 5.43728683 50.5645752 6.38504028 C48.95864314 8.25725971 48.95864314 8.25725971 47.296875 10.7890625 C44.52808887 14.42624065 42.14100723 16.77394065 37.51904297 17.66552734 C31.05049222 18.3300525 24.57331148 18.34847107 18.078125 18.171875 C17.49057757 21.02523032 16.90718569 23.87929149 16.328125 26.734375 C16.14910645 27.61665771 15.97008789 28.49894043 15.78564453 29.40795898 C14.16913632 37.48979413 12.77100518 45.60346781 11.47363281 53.74243164 C11.31991211 54.66918701 11.16619141 55.59594238 11.0078125 56.55078125 C10.87616699 57.3713501 10.74452148 58.19191895 10.60888672 59.03735352 C10.078125 61.171875 10.078125 61.171875 8.078125 64.171875 C6.19873047 64.51245117 6.19873047 64.51245117 3.9453125 64.46484375 C3.13964844 64.45517578 2.33398438 64.44550781 1.50390625 64.43554688 C0.66214844 64.41041016 -0.17960938 64.38527344 -1.046875 64.359375 C-1.89636719 64.34583984 -2.74585938 64.33230469 -3.62109375 64.31835938 C-5.72162337 64.28295719 -7.82182793 64.22914901 -9.921875 64.171875 C-9.40763707 54.84338423 -8.11200668 45.84250797 -6.359375 36.671875 C-5.89574239 34.22471225 -5.435947 31.77681859 -4.98046875 29.328125 C-4.77736084 28.26400391 -4.57425293 27.19988281 -4.36499023 26.10351562 C-3.79733193 22.84205744 -3.79733193 22.84205744 -3.921875 18.171875 C-12.831875 17.841875 -21.741875 17.511875 -30.921875 17.171875 C-23.86479665 3.05771831 -14.96767501 -0.62533353 0 0 Z " fill="#FFFFFF" transform="translate(515.921875,84.828125)"/>
<path d="M0 0 C0.53753906 0.28617188 1.07507813 0.57234375 1.62890625 0.8671875 C1.62890625 1.5271875 1.62890625 2.1871875 1.62890625 2.8671875 C-5.21455993 7.43057992 -11.31853231 8.87586122 -19.43359375 9.6796875 C-20.48998047 9.80021484 -21.54636719 9.92074219 -22.63476562 10.04492188 C-25.21214975 10.33648117 -27.79007896 10.61014237 -30.37109375 10.8671875 C-29.61183594 11.44082031 -28.85257813 12.01445313 -28.0703125 12.60546875 C-25.63237959 14.6482519 -23.99224658 16.47020504 -22.18359375 19.0546875 C-20.21922988 21.96674229 -20.21922988 21.96674229 -17.37109375 23.8671875 C-17.37109375 23.2071875 -17.37109375 22.5471875 -17.37109375 21.8671875 C-15.06109375 22.1971875 -12.75109375 22.5271875 -10.37109375 22.8671875 C-9.68359375 24.6171875 -9.68359375 24.6171875 -9.37109375 26.8671875 C-10.62109375 29.1171875 -10.62109375 29.1171875 -12.37109375 30.8671875 C-13.36109375 30.8671875 -14.35109375 30.8671875 -15.37109375 30.8671875 C-15.08234375 31.929375 -14.79359375 32.9915625 -14.49609375 34.0859375 C-14.12058099 35.51288599 -13.74560995 36.93997712 -13.37109375 38.3671875 C-13.1803125 39.06328125 -12.98953125 39.759375 -12.79296875 40.4765625 C-11.51331652 45.41236395 -11.02215713 49.76398937 -11.37109375 54.8671875 C-12.03109375 55.8571875 -12.69109375 56.8471875 -13.37109375 57.8671875 C-13.90476562 56.82820313 -14.4384375 55.78921875 -14.98828125 54.71875 C-22.60764946 40.27922375 -31.12566443 31.14676937 -46.37109375 24.8671875 C-47.22960937 24.50625 -48.088125 24.1453125 -48.97265625 23.7734375 C-58.28720364 20.5798784 -68.65996741 21.60348194 -78.37109375 21.8671875 C-77.37109375 18.8671875 -77.37109375 18.8671875 -75.40234375 17.55078125 C-69.74199308 14.76428146 -64.58738435 12.97007777 -58.37109375 11.8671875 C-58.86609375 11.42375 -59.36109375 10.9803125 -59.87109375 10.5234375 C-61.37109375 8.8671875 -61.37109375 8.8671875 -61.37109375 6.3671875 C-60.03251362 3.02073718 -58.5793824 2.42894136 -55.37109375 0.8671875 C-52.53125 0.53125 -52.53125 0.53125 -49.43359375 0.4921875 C-44.23820037 0.22861061 -40.19932536 -0.76941453 -35.37109375 -2.6953125 C-23.15896321 -7.34755271 -11.68449146 -5.58237648 0 0 Z M-52.37109375 3.8671875 C-52.04109375 4.5271875 -51.71109375 5.1871875 -51.37109375 5.8671875 C-50.71109375 5.5371875 -50.05109375 5.2071875 -49.37109375 4.8671875 C-50.36109375 4.5371875 -51.35109375 4.2071875 -52.37109375 3.8671875 Z " fill="#FFFFFF" transform="translate(188.37109375,57.1328125)"/>
<path d="M0 0 C0.74362793 0.01047363 1.48725586 0.02094727 2.25341797 0.03173828 C3.46191406 0.04140625 3.46191406 0.04140625 4.69482422 0.05126953 C5.95746094 0.07640625 5.95746094 0.07640625 7.24560547 0.10205078 C8.51984375 0.11558594 8.51984375 0.11558594 9.81982422 0.12939453 C11.9202043 0.15299431 14.02043991 0.18886595 16.12060547 0.22705078 C15.57593002 8.36181469 14.55897029 16.2845929 13.08935547 24.30126953 C12.89337769 25.39172073 12.6973999 26.48217194 12.4954834 27.60566711 C12.08465878 29.88416726 11.67109775 32.16217561 11.25488281 34.43969727 C10.61552288 37.94239548 9.98661916 41.44686142 9.35888672 44.95166016 C8.95715456 47.172474 8.5548326 49.39318125 8.15185547 51.61376953 C7.96328979 52.66465256 7.77472412 53.71553558 7.58044434 54.79826355 C7.40356079 55.76049332 7.22667725 56.72272308 7.04443359 57.71411133 C6.88978638 58.56394089 6.73513916 59.41377045 6.57580566 60.28935242 C6.12060547 62.22705078 6.12060547 62.22705078 5.12060547 63.22705078 C3.77793134 63.31336952 2.43086225 63.33411551 1.08544922 63.32470703 C0.2765625 63.32148438 -0.53232422 63.31826172 -1.36572266 63.31494141 C-2.21585937 63.3065625 -3.06599609 63.29818359 -3.94189453 63.28955078 C-4.79589844 63.28503906 -5.64990234 63.28052734 -6.52978516 63.27587891 C-8.64635117 63.26405452 -10.76288138 63.24611847 -12.87939453 63.22705078 C-13.86675939 59.36395452 -13.80255915 56.46426243 -13.10668945 52.55053711 C-12.91286179 51.43620804 -12.71903412 50.32187897 -12.51933289 49.17378235 C-12.30170792 47.98093124 -12.08408295 46.78808014 -11.85986328 45.55908203 C-11.64123123 44.3279216 -11.42259918 43.09676117 -11.19734192 41.82829285 C-10.73342052 39.22925533 -10.26591526 36.63118055 -9.79223633 34.03393555 C-9.18531557 30.70357132 -8.59381665 27.3706879 -8.00698376 24.03673267 C-7.44501606 20.85525883 -6.87072325 17.67601938 -6.29736328 14.49658203 C-6.085811 13.29765823 -5.87425873 12.09873444 -5.65629578 10.86347961 C-5.45301163 9.75860703 -5.24972748 8.65373444 -5.0402832 7.51538086 C-4.8640593 6.54006912 -4.68783539 5.56475739 -4.50627136 4.55989075 C-3.74988893 1.74511267 -3.02437879 0.36537702 0 0 Z " fill="#FFFFFF" transform="translate(463.87939453125,85.77294921875)"/>
</svg>
