<?xml version="1.0" encoding="UTF-8"?>
<svg version="1.1" xmlns="http://www.w3.org/2000/svg" width="625" height="217">
<path d="M0 0 C0.99185806 -0.01283524 1.98371613 -0.02567047 3.00563049 -0.03889465 C4.08263718 -0.04628159 5.15964386 -0.05366852 6.26928711 -0.0612793 C7.93102211 -0.07338692 7.93102211 -0.07338692 9.62632751 -0.08573914 C11.9775943 -0.09959205 14.32888131 -0.11030878 16.68017578 -0.11816406 C20.25780107 -0.13531193 23.83448677 -0.17918082 27.41186523 -0.22338867 C29.69766574 -0.23352124 31.9834741 -0.24203557 34.26928711 -0.2487793 C35.86354271 -0.27504143 35.86354271 -0.27504143 37.49000549 -0.30183411 C44.14779046 -0.28262378 49.51459154 0.60702757 55.23413086 4.17700195 C58.38484986 7.48141456 59.48020906 10.08143935 59.73413086 14.55200195 C59.42670505 20.83832964 57.11101513 25.47074352 52.48413086 29.67700195 C51.74163086 30.17200195 50.99913086 30.66700195 50.23413086 31.17700195 C51.03850586 31.85762695 51.84288086 32.53825195 52.67163086 33.23950195 C55.78443696 36.80784066 56.15580449 38.47741963 56.23413086 43.17700195 C55.72756171 49.12918942 54.07737548 53.38546128 49.94506836 57.73950195 C44.16496154 62.59584741 36.98726131 63.30467793 29.69970703 63.29052734 C28.39873581 63.29045181 27.09776459 63.29037628 25.75737 63.29029846 C24.34727947 63.28519258 22.93718935 63.27997659 21.52709961 63.2746582 C20.07693023 63.27279174 18.62676021 63.27136892 17.17658997 63.27037048 C13.3708012 63.26656325 9.56505095 63.25674837 5.75927734 63.2456665 C1.87134319 63.23541373 -2.01659722 63.23086459 -5.90454102 63.22583008 C-13.52500123 63.21512442 -21.14542978 63.19806965 -28.76586914 63.17700195 C-28.00082556 54.90498858 -26.77843464 46.79490063 -25.32836914 38.61450195 C-25.00255859 36.69154297 -25.00255859 36.69154297 -24.67016602 34.72973633 C-24.45553711 33.51479492 -24.2409082 32.29985352 -24.01977539 31.0480957 C-23.82714111 29.94393311 -23.63450684 28.83977051 -23.43603516 27.70214844 C-23.21488037 26.8688501 -22.99372559 26.03555176 -22.76586914 25.17700195 C-20.25460586 23.92137031 -18.57808713 24.06998623 -15.76879883 24.09521484 C-14.72721619 24.10174576 -13.68563354 24.10827667 -12.61248779 24.11500549 C-11.48232239 24.12644089 -10.35215698 24.13787628 -9.18774414 24.1496582 C-6.8062352 24.16230864 -4.4247247 24.17466929 -2.04321289 24.18676758 C1.72034509 24.21156336 5.48382306 24.23949922 9.24731445 24.27294922 C12.87313341 24.30319216 16.4988508 24.32094338 20.12475586 24.3371582 C21.24682434 24.35061783 22.36889282 24.36407745 23.52496338 24.37794495 C28.82013915 24.39491634 33.29461527 24.3569906 38.23413086 22.17700195 C38.56413086 20.52700195 38.89413086 18.87700195 39.23413086 17.17700195 C10.02913086 16.68200195 10.02913086 16.68200195 -19.76586914 16.17700195 C-17.75728123 12.15982613 -15.42001969 9.56622504 -12.26586914 6.48950195 C-11.76700195 5.9912793 -11.26813477 5.49305664 -10.75415039 4.97973633 C-6.99009698 1.26109375 -5.23511641 0.0589367 0 0 Z M-5.76586914 39.17700195 C-5.83735113 40.52944113 -5.84986369 41.88534562 -5.82836914 43.23950195 C-5.80774414 44.53887695 -5.78711914 45.83825195 -5.76586914 47.17700195 C-0.58808512 47.25131327 4.58938654 47.30568004 9.76757812 47.34179688 C11.52804982 47.35685748 13.28848416 47.37731021 15.04882812 47.40332031 C17.58334589 47.43982424 20.11736638 47.4567555 22.65209961 47.4699707 C23.82738472 47.49319649 23.82738472 47.49319649 25.02641296 47.51689148 C29.62894709 47.51830006 32.53434914 46.96874325 36.23413086 44.17700195 C35.88968205 41.7043343 35.88968205 41.7043343 35.23413086 39.17700195 C31.96445822 37.54216564 28.35379971 38.03529707 24.76147461 38.04418945 C23.92322647 38.04323273 23.08497833 38.042276 22.22132874 38.04129028 C20.44849574 38.04060935 18.67566025 38.04245761 16.90283203 38.04663086 C14.17922409 38.05198702 11.45578057 38.04667952 8.73217773 38.0402832 C7.01277633 38.04094387 5.29337502 38.04222479 3.57397461 38.04418945 C2.75420639 38.04216522 1.93443817 38.04014099 1.08982849 38.03805542 C-2.64178106 37.69354476 -2.64178106 37.69354476 -5.76586914 39.17700195 Z " fill="#000000" transform="translate(386.765869140625,85.822998046875)"/>
<path d="M0 0 C0.99185806 -0.01283524 1.98371613 -0.02567047 3.00563049 -0.03889465 C4.08263718 -0.04628159 5.15964386 -0.05366852 6.26928711 -0.0612793 C7.93102211 -0.07338692 7.93102211 -0.07338692 9.62632751 -0.08573914 C11.9775943 -0.09959205 14.32888131 -0.11030878 16.68017578 -0.11816406 C20.25780107 -0.13531193 23.83448677 -0.17918082 27.41186523 -0.22338867 C29.69766574 -0.23352124 31.9834741 -0.24203557 34.26928711 -0.2487793 C35.86354271 -0.27504143 35.86354271 -0.27504143 37.49000549 -0.30183411 C44.15518485 -0.28260244 49.50266351 0.61903471 55.23413086 4.17700195 C58.61726175 7.64264823 59.49797838 10.39860854 59.73413086 15.11450195 C59.51136853 20.22267264 58.26868783 23.07624929 55.23413086 27.17700195 C52.48413086 29.61450195 52.48413086 29.61450195 50.23413086 31.17700195 C51.03850586 31.94012695 51.84288086 32.70325195 52.67163086 33.48950195 C56.15519103 37.14299189 56.59410855 39.99473932 56.51147461 44.98950195 C55.84685014 50.23161042 53.26061889 54.5509298 49.35913086 58.05200195 C40.33334875 64.18953379 29.68023248 63.31629865 19.20678711 63.2746582 C17.84915723 63.27279036 16.49152667 63.27136819 15.13389587 63.27037048 C11.58131002 63.26657417 8.02876582 63.25676891 4.47619629 63.2456665 C0.84277917 63.23538997 -2.79064476 63.23085955 -6.42407227 63.22583008 C-13.53802148 63.21514373 -20.65194257 63.19810244 -27.76586914 63.17700195 C-29.00183887 59.01306538 -28.34209642 55.54226304 -27.55102539 51.34887695 C-27.41643417 50.59987122 -27.28184296 49.85086548 -27.14317322 49.0791626 C-26.71266779 46.69362328 -26.27068691 44.31037637 -25.82836914 41.92700195 C-25.53398962 40.30734819 -25.24036104 38.68755774 -24.94750977 37.06762695 C-24.22899145 33.10244826 -23.50017614 29.13928583 -22.76586914 25.17700195 C-22.19561005 25.16669449 -21.62535095 25.15638702 -21.03781128 25.14576721 C-15.0341514 25.03651685 -9.03060654 24.92203551 -3.02709961 24.8046875 C-0.79470252 24.76171345 1.43771958 24.72001705 3.67016602 24.6796875 C21.47239658 24.35901017 21.47239658 24.35901017 39.23413086 23.17700195 C39.23413086 21.52700195 39.23413086 19.87700195 39.23413086 18.17700195 C36.63479916 16.8773361 34.68548883 17.01656034 31.7746582 16.97167969 C30.6336264 16.95173447 29.4925946 16.93178925 28.31698608 16.91123962 C26.46226181 16.88617088 26.46226181 16.88617088 24.57006836 16.8605957 C23.30772369 16.83981461 22.04537903 16.81903351 20.74478149 16.79762268 C17.38781041 16.74322269 14.03082897 16.69299959 10.67376709 16.64477539 C7.24852021 16.59455153 3.82336257 16.5388701 0.39819336 16.48364258 C-6.32308975 16.37638336 -13.04443958 16.27462755 -19.76586914 16.17700195 C-17.94321179 12.22033425 -15.35419695 9.5020181 -12.26586914 6.48950195 C-11.76700195 5.9912793 -11.26813477 5.49305664 -10.75415039 4.97973633 C-6.99009698 1.26109375 -5.23511641 0.0589367 0 0 Z M-4.76586914 38.17700195 C-6.24419174 41.13364715 -5.82619697 43.91929932 -5.76586914 47.17700195 C-0.42735836 47.25121136 4.91085153 47.30563197 10.24975586 47.34179688 C12.06556428 47.35687457 13.88133633 47.37733994 15.69702148 47.40332031 C18.30844094 47.43974876 20.9193785 47.45673833 23.53100586 47.4699707 C24.34156433 47.48545456 25.1521228 47.50093842 25.98724365 47.51689148 C29.43456506 47.51791864 31.77956302 47.44830304 34.77807617 45.65869141 C35.25857422 45.16973389 35.73907227 44.68077637 36.23413086 44.17700195 C35.85508878 40.88624199 35.85508878 40.88624199 34.23413086 38.17700195 C31.34979266 38.08834988 28.48950928 38.06178899 25.60522461 38.0793457 C24.7409938 38.08076065 23.876763 38.0821756 22.98634338 38.08363342 C20.21473794 38.08924957 17.44321206 38.10180476 14.67163086 38.11450195 C12.79728306 38.11951488 10.92293401 38.12407814 9.04858398 38.12817383 C4.44373542 38.13922424 -0.16105335 38.15649966 -4.76586914 38.17700195 Z " fill="#000000" transform="translate(295.765869140625,85.822998046875)"/>
<path d="M0 0 C3.5581566 0.09877686 7.11076183 0.1229675 10.67016602 0.13427734 C12.95863546 0.16245945 15.24705752 0.19487198 17.53540039 0.23193359 C18.58469223 0.242659 19.63398407 0.2533844 20.71507263 0.26443481 C29.6664338 0.54838923 38.166548 2.1629247 44.75805664 8.59912109 C48.2553261 13.13043898 49.07232997 17.3250661 48.63305664 22.97412109 C47.47713672 30.08656711 43.92536871 35.18744394 38.63305664 39.97412109 C35.26831585 42.04473081 33.56096979 42.97412109 29.63305664 42.97412109 C32.40815776 47.8997025 35.91117448 51.97251174 39.57446289 56.25537109 C41.52008702 58.82492402 42.51562822 60.98596282 43.63305664 63.97412109 C39.61347746 64.23700022 35.5961147 64.39580479 31.57055664 64.53662109 C30.43682617 64.61203125 29.3030957 64.68744141 28.13500977 64.76513672 C19.83562036 64.98290495 19.83562036 64.98290495 16.34375 62.05371094 C14.55574277 59.76858228 13.0656459 57.49417828 11.63305664 54.97412109 C9.22844083 50.85534179 9.22844083 50.85534179 5.63305664 47.97412109 C3.6007303 47.88884481 1.56558658 47.86695974 -0.46850586 47.87646484 C-1.68022461 47.8796875 -2.89194336 47.88291016 -4.14038086 47.88623047 C-5.41139648 47.89460938 -6.68241211 47.90298828 -7.99194336 47.91162109 C-9.91006836 47.91838867 -9.91006836 47.91838867 -11.86694336 47.92529297 C-15.03365628 47.93710906 -18.20027692 47.95358295 -21.36694336 47.97412109 C-22.95190906 53.29507738 -24.15585167 58.52420848 -25.36694336 63.97412109 C-31.63694336 63.97412109 -37.90694336 63.97412109 -44.36694336 63.97412109 C-44.36694336 54.96512559 -44.36694336 54.96512559 -43.52709961 50.19677734 C-43.35114258 49.189375 -43.17518555 48.18197266 -42.99389648 47.14404297 C-42.71449219 45.60586914 -42.71449219 45.60586914 -42.42944336 44.03662109 C-42.24704102 42.98410156 -42.06463867 41.93158203 -41.87670898 40.84716797 C-40.50315926 33.110337 -40.50315926 33.110337 -39.36694336 31.97412109 C-37.55793821 31.86648061 -35.74478576 31.82785898 -33.93261719 31.81640625 C-32.7708345 31.8061441 -31.60905182 31.79588196 -30.4120636 31.78530884 C-29.14549423 31.77800751 -27.87892487 31.77070618 -26.57397461 31.76318359 C-24.59689052 31.74230213 -22.61980643 31.72140323 -20.64273357 31.69948387 C-15.75261565 31.6462652 -10.8624876 31.60219481 -5.97216797 31.57275391 C-3.23445061 31.55582697 -0.49701342 31.53110124 2.24055481 31.49789429 C4.82140235 31.46693392 7.40241963 31.44750853 9.98344421 31.44082642 C11.1609877 31.42425995 12.33853119 31.40769348 13.55175781 31.390625 C15.09944099 31.37849472 15.09944099 31.37849472 16.6783905 31.36611938 C20.22109853 30.89610503 22.61772687 29.88131138 25.63305664 27.97412109 C26.78789103 24.47672192 26.78789103 24.47672192 26.63305664 20.97412109 C23.23202702 17.57309147 19.59450918 17.84078076 14.9465332 17.76879883 C13.80565247 17.74885361 12.66477173 17.72890839 11.48931885 17.70835876 C10.26315857 17.69164627 9.03699829 17.67493378 7.77368164 17.65771484 C6.51416687 17.63693375 5.2546521 17.61615265 3.95697021 17.59474182 C0.61646793 17.54045808 -2.72404558 17.4902004 -6.06463623 17.44189453 C-9.47665729 17.39156405 -12.88859159 17.3359384 -16.30053711 17.28076172 C-22.98927 17.17366996 -29.67806799 17.07188569 -36.36694336 16.97412109 C-35.40611397 15.52870984 -34.44382772 14.08424277 -33.47366333 12.64508057 C-32.51423912 11.19651271 -31.60281953 9.71636767 -30.70068359 8.23144531 C-22.91443503 -1.99460423 -11.79724554 -0.33350829 0 0 Z " fill="#000000" transform="translate(108.366943359375,85.02587890625)"/>
<path d="M0 0 C0.85207031 -0.02578125 1.70414062 -0.0515625 2.58203125 -0.078125 C6.04368088 0.35782488 7.47902366 0.98380985 10.1875 3.25 C12.26358355 6.40008429 13.89806084 9.74353053 15.5625 13.125 C16.61038146 15.19416015 17.65857423 17.26316268 18.70703125 19.33203125 C19.26342285 20.44143066 19.81981445 21.55083008 20.39306641 22.69384766 C22.30345682 26.47979959 24.24524124 30.24814516 26.19921875 34.01171875 C26.53636902 34.66118469 26.87351929 35.31065063 27.22088623 35.97979736 C27.89716114 37.28210406 28.57355195 38.58435058 29.25006104 39.88653564 C30.84862707 42.96550477 32.44230922 46.04697384 34.03515625 49.12890625 C34.57148682 50.1660376 35.10781738 51.20316895 35.66040039 52.27172852 C36.16434326 53.25455811 36.66828613 54.2373877 37.1875 55.25 C37.74751709 56.30437256 38.30753418 57.35874512 38.88452148 58.44506836 C40.1875 61.25 40.1875 61.25 40.1875 64.25 C16.7575 64.25 -6.6725 64.25 -30.8125 64.25 C-28.86471045 59.38052611 -27.46344378 57.54481169 -23.8125 54 C-22.925625 53.12859375 -22.03875 52.2571875 -21.125 51.359375 C-17.6748813 48.21230726 -15.73691729 48.09581273 -11.1484375 47.93359375 C-10.02695313 47.89169922 -8.90546875 47.84980469 -7.75 47.80664062 C-6.574375 47.76732422 -5.39875 47.72800781 -4.1875 47.6875 C-3.00414062 47.64431641 -1.82078125 47.60113281 -0.6015625 47.55664062 C2.32800328 47.45032574 5.25765588 47.34829358 8.1875 47.25 C6.59322853 43.97425287 4.98540361 40.70534266 3.375 37.4375 C2.92318359 36.50873047 2.47136719 35.57996094 2.00585938 34.62304688 C1.56435547 33.73037109 1.12285156 32.83769531 0.66796875 31.91796875 C0.06311646 30.68469849 0.06311646 30.68469849 -0.55395508 29.42651367 C-1.77121386 27.3213998 -3.01220134 25.86729498 -4.8125 24.25 C-9.58531371 29.53148093 -14.33621433 34.82795726 -19.0078125 40.19921875 C-21.04208141 42.51088797 -23.1147231 44.7853143 -25.1875 47.0625 C-29.29580514 51.6006621 -33.15527573 56.30714126 -36.96484375 61.09765625 C-38.8125 63.25 -38.8125 63.25 -40.8125 64.25 C-42.4799606 64.33426094 -44.15075187 64.35725143 -45.8203125 64.34765625 C-46.80644531 64.34443359 -47.79257813 64.34121094 -48.80859375 64.33789062 C-49.84113281 64.32951172 -50.87367188 64.32113281 -51.9375 64.3125 C-53.49791016 64.30573242 -53.49791016 64.30573242 -55.08984375 64.29882812 C-57.66411962 64.28701952 -60.23828146 64.27055075 -62.8125 64.25 C-60.93374518 60.24375229 -58.32809227 57.12741199 -55.4375 53.8125 C-54.90874268 53.20067871 -54.37998535 52.58885742 -53.83520508 51.95849609 C-49.16376526 46.58478661 -44.34415873 41.35480929 -39.4921875 36.14453125 C-36.77448266 33.20893462 -34.1299232 30.2231498 -31.51171875 27.19921875 C-28.76276451 24.04582066 -25.95430694 20.94648617 -23.1484375 17.84375 C-21.56107435 16.08119292 -19.98325232 14.31000589 -18.4140625 12.53125 C-17.63804687 11.6546875 -16.86203125 10.778125 -16.0625 9.875 C-15.36640625 9.08351563 -14.6703125 8.29203125 -13.953125 7.4765625 C-9.60497934 2.95385625 -6.32101058 0.11372133 0 0 Z " fill="#000000" transform="translate(218.8125,84.75)"/>
<path d="M0 0 C1.59704143 0.02243628 3.19416657 0.03949194 4.7913208 0.05145264 C8.95613532 0.09685349 13.11577026 0.21431549 17.27856445 0.34790039 C21.54176771 0.47159575 25.80582464 0.5256594 30.0703125 0.5859375 C38.40860368 0.71388895 46.74271676 0.91813613 55.078125 1.171875 C54.66566528 1.64682404 54.25320557 2.12177307 53.82824707 2.6111145 C53.28744507 3.23718597 52.74664307 3.86325745 52.18945312 4.50830078 C51.38513855 5.43728683 51.38513855 5.43728683 50.5645752 6.38504028 C48.95864314 8.25725971 48.95864314 8.25725971 47.296875 10.7890625 C44.52808887 14.42624065 42.14100723 16.77394065 37.51904297 17.66552734 C31.05049222 18.3300525 24.57331148 18.34847107 18.078125 18.171875 C15.57026276 30.23095726 13.31172064 42.293066 11.47363281 54.47460938 C11.31991211 55.44978516 11.16619141 56.42496094 11.0078125 57.4296875 C10.87616699 58.2973877 10.74452148 59.16508789 10.60888672 60.05908203 C10.078125 62.171875 10.078125 62.171875 8.078125 64.171875 C6.19873047 64.39892578 6.19873047 64.39892578 3.9453125 64.3671875 C3.13964844 64.36074219 2.33398438 64.35429687 1.50390625 64.34765625 C0.24126953 64.32251953 0.24126953 64.32251953 -1.046875 64.296875 C-2.32111328 64.28333984 -2.32111328 64.28333984 -3.62109375 64.26953125 C-5.72147384 64.24593147 -7.82170944 64.21005983 -9.921875 64.171875 C-10.06206495 59.03908717 -9.56292513 54.25355411 -8.609375 49.2265625 C-8.47619873 48.49365997 -8.34302246 47.76075745 -8.20581055 47.00564575 C-7.78362401 44.68494919 -7.35351081 42.36583117 -6.921875 40.046875 C-6.49086577 37.72067866 -6.06174012 35.39420188 -5.63793945 33.06668091 C-5.37520031 31.62453627 -5.10832171 30.18313765 -4.83666992 28.74264526 C-4.17024163 25.09365982 -3.921875 21.92117165 -3.921875 18.171875 C-12.831875 17.841875 -21.741875 17.511875 -30.921875 17.171875 C-23.86479665 3.05771831 -14.96767501 -0.62533353 0 0 Z " fill="#000000" transform="translate(514.921875,84.828125)"/>
<path d="M0 0 C0.53753906 0.28617188 1.07507813 0.57234375 1.62890625 0.8671875 C1.62890625 1.5271875 1.62890625 2.1871875 1.62890625 2.8671875 C-8.26184267 9.41106684 -18.8017466 10.00176389 -30.37109375 10.8671875 C-29.31921875 11.6096875 -29.31921875 11.6096875 -28.24609375 12.3671875 C-25.16941695 15.04255863 -23.03580215 17.84270774 -20.703125 21.16015625 C-19.46460129 22.99961187 -19.46460129 22.99961187 -17.37109375 23.8671875 C-17.37109375 23.2071875 -17.37109375 22.5471875 -17.37109375 21.8671875 C-15.39109375 21.8671875 -13.41109375 21.8671875 -11.37109375 21.8671875 C-9.24609375 26.4921875 -9.24609375 26.4921875 -10.37109375 29.8671875 C-12.02109375 30.1971875 -13.67109375 30.5271875 -15.37109375 30.8671875 C-15.16613281 31.44726562 -14.96117187 32.02734375 -14.75 32.625 C-12.10861665 40.2837479 -10.50566602 47.71163122 -11.37109375 55.8671875 C-12.36109375 56.8571875 -12.36109375 56.8571875 -13.37109375 57.8671875 C-14.00724609 56.61615234 -14.00724609 56.61615234 -14.65625 55.33984375 C-22.96703704 39.3940919 -31.98841189 29.80219525 -49.37109375 23.8671875 C-55.83162783 21.88513405 -61.63753575 21.62144784 -68.37109375 21.7421875 C-69.33660156 21.75121094 -70.30210938 21.76023437 -71.296875 21.76953125 C-73.65521474 21.79288115 -76.01301661 21.82562703 -78.37109375 21.8671875 C-77.37109375 18.8671875 -77.37109375 18.8671875 -75.40234375 17.55078125 C-69.74199308 14.76428146 -64.58738435 12.97007777 -58.37109375 11.8671875 C-58.86609375 11.42375 -59.36109375 10.9803125 -59.87109375 10.5234375 C-61.37109375 8.8671875 -61.37109375 8.8671875 -61.37109375 6.3671875 C-60.03251362 3.02073718 -58.5793824 2.42894136 -55.37109375 0.8671875 C-52.53125 0.53125 -52.53125 0.53125 -49.43359375 0.4921875 C-44.23820037 0.22861061 -40.19932536 -0.76941453 -35.37109375 -2.6953125 C-23.15896321 -7.34755271 -11.68449146 -5.58237648 0 0 Z M-52.37109375 3.8671875 C-52.04109375 4.5271875 -51.71109375 5.1871875 -51.37109375 5.8671875 C-50.71109375 5.8671875 -50.05109375 5.8671875 -49.37109375 5.8671875 C-49.37109375 5.2071875 -49.37109375 4.5471875 -49.37109375 3.8671875 C-50.36109375 3.8671875 -51.35109375 3.8671875 -52.37109375 3.8671875 Z " fill="#000000" transform="translate(187.37109375,57.1328125)"/>
<path d="M0 0 C0.74362793 0.01047363 1.48725586 0.02094727 2.25341797 0.03173828 C3.46191406 0.04140625 3.46191406 0.04140625 4.69482422 0.05126953 C5.95746094 0.07640625 5.95746094 0.07640625 7.24560547 0.10205078 C8.51984375 0.11558594 8.51984375 0.11558594 9.81982422 0.12939453 C11.9202043 0.15299431 14.02043991 0.18886595 16.12060547 0.22705078 C16.39441499 6.62157351 15.34787448 12.60815415 14.22216797 18.89111328 C14.02714691 20.00134857 13.83212585 21.11158386 13.63119507 22.25546265 C13.21880681 24.59416601 12.80343226 26.93234454 12.38525391 29.27001953 C11.74679584 32.84538473 11.12055677 36.42274036 10.49560547 40.00048828 C10.09268932 42.27665923 9.68906747 44.5527054 9.28466797 46.82861328 C9.09812653 47.89641022 8.91158508 48.96420715 8.71939087 50.06436157 C8.53935516 51.06244843 8.35931946 52.06053528 8.17382812 53.08886719 C8.01838531 53.96266022 7.8629425 54.83645325 7.70278931 55.73672485 C7.12060547 58.22705078 7.12060547 58.22705078 5.12060547 63.22705078 C-0.81939453 63.22705078 -6.75939453 63.22705078 -12.87939453 63.22705078 C-13.87363023 59.250108 -13.79138591 57.50186758 -13.10668945 53.57226562 C-12.91286179 52.43784027 -12.71903412 51.30341492 -12.51933289 50.13461304 C-12.30170792 48.91472687 -12.08408295 47.6948407 -11.85986328 46.43798828 C-11.64123123 45.18321686 -11.42259918 43.92844543 -11.19734192 42.63565063 C-10.7330097 39.98367008 -10.26539227 37.33252386 -9.79223633 34.68212891 C-9.18593126 31.28321387 -8.59427733 27.88194133 -8.00698376 24.47969627 C-7.44491479 21.23524934 -6.87062666 17.992973 -6.29736328 14.75048828 C-6.085811 13.52655365 -5.87425873 12.30261902 -5.65629578 11.04159546 C-5.45301163 9.91347443 -5.24972748 8.78535339 -5.0402832 7.62304688 C-4.8640593 6.62695404 -4.68783539 5.63086121 -4.50627136 4.60458374 C-3.75771084 1.76554546 -3.05152564 0.36865664 0 0 Z " fill="#000000" transform="translate(462.87939453125,85.77294921875)"/>
</svg>
