<svg xmlns="http://www.w3.org/2000/svg" width="10" height="11" viewBox="0 0 10 11" fill="none">
  <g clip-path="url(#clip0_2444_145)">
    <path d="M8.57672 9.56082V1.83717C8.56763 1.73107 8.56763 1.6244 8.57672 1.5183C8.61312 1.34869 8.71366 1.19966 8.85735 1.1023C9.00105 1.00494 9.17682 0.966756 9.348 0.995718C9.51205 1.00007 9.66831 1.06654 9.78516 1.18165C9.90202 1.29676 9.97075 1.45191 9.97743 1.61573C9.98185 1.68652 9.98185 1.75753 9.97743 1.82832V10.1543C9.98185 10.2221 9.98185 10.2902 9.97743 10.358C9.97743 10.4406 9.96115 10.5223 9.92952 10.5986C9.89789 10.6749 9.85152 10.7443 9.79308 10.8027C9.73463 10.8611 9.66524 10.9074 9.58888 10.939C9.51251 10.9706 9.43066 10.9869 9.348 10.9869H6.32495C5.40088 10.9511 4.52522 10.5647 3.87628 9.90646C3.22733 9.24822 2.85391 8.36759 2.83205 7.4439C2.83205 6.47845 2.83205 5.513 2.83205 4.54754C2.81959 4.37784 2.87368 4.20994 2.98287 4.07936C3.09206 3.94878 3.24779 3.86574 3.41715 3.8478C3.58369 3.81112 3.75795 3.83806 3.90561 3.9233C4.05327 4.00854 4.16365 4.14592 4.21503 4.30839C4.24766 4.42054 4.26262 4.53708 4.25935 4.65383C4.25935 5.53957 4.25935 6.42531 4.25935 7.31105C4.25935 7.60259 4.31697 7.89126 4.42891 8.1605C4.54084 8.42973 4.70488 8.67423 4.91163 8.87997C5.11837 9.08571 5.36374 9.24863 5.63366 9.35939C5.90358 9.47015 6.19273 9.52656 6.48453 9.5254C7.11396 9.5254 7.74339 9.5254 8.37283 9.5254L8.57672 9.56082Z" fill="#535353"/>
    <path d="M1.42268 2.43054V10.1542C1.43585 10.2601 1.43585 10.3672 1.42268 10.473C1.3864 10.644 1.28418 10.7938 1.13815 10.8899C0.992131 10.9861 0.814068 11.0209 0.642541 10.9868C0.480927 10.9801 0.327879 10.9124 0.214328 10.7973C0.100778 10.6822 0.0351924 10.5283 0.0308373 10.3668C0.0264234 10.296 0.0264234 10.225 0.0308373 10.1542V1.63337C0.0353163 1.46564 0.104002 1.30602 0.222749 1.18738C0.341496 1.06874 0.501262 1.00011 0.669136 0.995636H1.66205C2.29148 0.995636 2.92091 0.995636 3.55034 0.995636C4.39762 1.00484 5.2152 1.3088 5.86241 1.85521C6.50962 2.40162 6.94599 3.15631 7.09644 3.98944C7.12474 4.17115 7.13956 4.3547 7.14077 4.53859C7.14077 5.49519 7.14077 6.44294 7.14077 7.39954C7.1526 7.51801 7.13359 7.63753 7.08558 7.74649C7.03757 7.85546 6.96219 7.95018 6.86676 8.02148C6.77132 8.09277 6.65906 8.1382 6.54087 8.15339C6.42268 8.16857 6.30257 8.15298 6.19218 8.10812C6.04002 8.06498 5.90822 7.96904 5.82048 7.83755C5.73274 7.70605 5.6948 7.54761 5.71346 7.39068V5.3269C5.71346 4.96375 5.71346 4.60059 5.71346 4.2463C5.63464 3.77977 5.40291 3.35263 5.0547 3.03197C4.70648 2.71132 4.26151 2.51534 3.7897 2.47482C2.99183 2.41282 2.22055 2.43054 1.42268 2.43054Z" fill="#535353"/>
  </g>
  <defs>
    <clipPath id="clip0_2444_145">
      <rect width="10.0089" height="10.0089" fill="white" transform="translate(-0.0045166 0.986816)"/>
    </clipPath>
  </defs>
</svg>