<svg width="10" height="11" viewBox="0 0 10 11" fill="none" xmlns="http://www.w3.org/2000/svg">
<g clip-path="url(#clip0_2318_5373)">
<path d="M8.57671 9.06082V1.33717C8.56762 1.23108 8.56762 1.1244 8.57671 1.01831C8.61311 0.848691 8.71364 0.699667 8.85734 0.602304C9.00103 0.504941 9.1768 0.46676 9.34799 0.495722C9.51203 0.500078 9.66829 0.566543 9.78515 0.681652C9.90201 0.796762 9.97073 0.951917 9.97742 1.11574C9.98183 1.18653 9.98183 1.25753 9.97742 1.32832V9.65427C9.98184 9.7221 9.98184 9.79016 9.97742 9.858C9.97742 9.94058 9.96114 10.0224 9.9295 10.0987C9.89787 10.1749 9.85151 10.2443 9.79306 10.3027C9.73461 10.3611 9.66523 10.4074 9.58886 10.439C9.51249 10.4706 9.43064 10.4869 9.34799 10.4869H6.32494C5.40087 10.4511 4.52521 10.0647 3.87626 9.40646C3.22732 8.74822 2.8539 7.86759 2.83203 6.94391C2.83203 5.97845 2.83203 5.013 2.83203 4.04755C2.81958 3.87785 2.87366 3.70995 2.98285 3.57936C3.09204 3.44878 3.24778 3.36574 3.41714 3.34781C3.58368 3.31112 3.75793 3.33806 3.90559 3.4233C4.05326 3.50854 4.16364 3.64592 4.21501 3.80839C4.24764 3.92054 4.2626 4.03708 4.25934 4.15383C4.25934 5.03957 4.25934 5.92531 4.25934 6.81105C4.25934 7.10259 4.31696 7.39127 4.42889 7.6605C4.54082 7.92974 4.70487 8.17424 4.91161 8.37998C5.11836 8.58571 5.36372 8.74863 5.63364 8.85939C5.90356 8.97015 6.19272 9.02657 6.48451 9.0254C7.11394 9.0254 7.74338 9.0254 8.37281 9.0254L8.57671 9.06082Z" fill="#0095FF"/>
<path d="M1.42266 1.93055V9.65418C1.43583 9.76006 1.43583 9.86717 1.42266 9.97305C1.38638 10.144 1.28416 10.2938 1.13814 10.3899C0.992115 10.4861 0.814053 10.5209 0.642526 10.4868C0.480912 10.4801 0.327863 10.4124 0.214313 10.2973C0.100762 10.1822 0.0351771 10.0283 0.030822 9.86676C0.0264081 9.79597 0.0264081 9.72497 0.030822 9.65418V1.13337C0.035301 0.965646 0.103987 0.806021 0.222734 0.68738C0.341481 0.568738 0.501247 0.500113 0.669121 0.495638H1.66203C2.29146 0.495638 2.92089 0.495638 3.55032 0.495638C4.39761 0.504844 5.21519 0.808804 5.86239 1.35521C6.5096 1.90162 6.94597 2.65631 7.09642 3.48944C7.12473 3.67115 7.13955 3.8547 7.14075 4.0386C7.14075 4.99519 7.14075 5.94295 7.14075 6.89954C7.15259 7.01801 7.13357 7.13753 7.08557 7.2465C7.03756 7.35547 6.96218 7.45019 6.86674 7.52148C6.7713 7.59277 6.65905 7.63821 6.54086 7.65339C6.42266 7.66857 6.30255 7.65298 6.19217 7.60813C6.04 7.56498 5.90821 7.46904 5.82047 7.33755C5.73273 7.20605 5.69478 7.04761 5.71345 6.89068V4.8269C5.71345 4.46375 5.71345 4.1006 5.71345 3.7463C5.63462 3.27977 5.40289 2.85263 5.05468 2.53198C4.70647 2.21133 4.2615 2.01534 3.78968 1.97482C2.99181 1.91282 2.22054 1.93055 1.42266 1.93055Z" fill="#0095FF"/>
</g>
<defs>
<clipPath id="clip0_2318_5373">
<rect width="10.0089" height="10.0089" fill="white" transform="translate(-0.00453186 0.486814)"/>
</clipPath>
</defs>
</svg>
