<svg xmlns="http://www.w3.org/2000/svg" data-name="Layer 1" viewBox="0 0 100 125" x="0px" y="0px"><title>Artboard 6</title><path d="M65,73a4,4,0,0,0,0,8h8a8,8,0,0,0,8-8V27a8,8,0,0,0-8-8H65a4,4,0,0,0,0,8h8V37H65a4,4,0,0,0,0,8h8V55H65a4,4,0,0,0,0,8h8V73Z"/><path d="M40,51V33.66l5.17,5.17a4,4,0,0,0,5.66-5.66l-8.59-8.59a8.83,8.83,0,0,0-12.49,0l-8.59,8.59a4,4,0,0,0,5.66,5.66L32,33.66V49h0V66.34l-5.17-5.17a4,4,0,0,0-5.66,5.66l8.59,8.59a8.83,8.83,0,0,0,12.49,0l8.59-8.59a4,4,0,1,0-5.66-5.66L40,66.34V51Z"/><text x="0" y="115" fill="#000000" font-size="5px" font-weight="bold" font-family="'Helvetica Neue', Helvetica, Arial-Unicode, Arial, Sans-serif">Created by Gregor Cresnar</text><text x="0" y="120" fill="#000000" font-size="5px" font-weight="bold" font-family="'Helvetica Neue', Helvetica, Arial-Unicode, Arial, Sans-serif">from the Noun Project</text></svg>