<svg width="16" height="17" viewBox="0 0 16 17" fill="none" xmlns="http://www.w3.org/2000/svg">
<mask id="mask0_2318_5378" style="mask-type:alpha" maskUnits="userSpaceOnUse" x="0" y="0" width="16" height="17">
<rect y="0.5" width="16" height="16" fill="black"/>
</mask>
<g mask="url(#mask0_2318_5378)">
<path d="M4.66667 15.1667C4.30001 15.1667 3.98612 15.0361 3.72501 14.775C3.46389 14.5139 3.33334 14.2 3.33334 13.8333C3.33334 13.4667 3.46389 13.1528 3.72501 12.8917C3.98612 12.6306 4.30001 12.5 4.66667 12.5C5.03334 12.5 5.34723 12.6306 5.60834 12.8917C5.86945 13.1528 6.00001 13.4667 6.00001 13.8333C6.00001 14.2 5.86945 14.5139 5.60834 14.775C5.34723 15.0361 5.03334 15.1667 4.66667 15.1667ZM11.3333 15.1667C10.9667 15.1667 10.6528 15.0361 10.3917 14.775C10.1306 14.5139 10 14.2 10 13.8333C10 13.4667 10.1306 13.1528 10.3917 12.8917C10.6528 12.6306 10.9667 12.5 11.3333 12.5C11.7 12.5 12.0139 12.6306 12.275 12.8917C12.5361 13.1528 12.6667 13.4667 12.6667 13.8333C12.6667 14.2 12.5361 14.5139 12.275 14.775C12.0139 15.0361 11.7 15.1667 11.3333 15.1667ZM4.10001 4.5L5.70001 7.83333H10.3667L12.2 4.5H4.10001ZM3.46667 3.16667H13.3C13.5556 3.16667 13.75 3.28056 13.8833 3.50833C14.0167 3.73611 14.0222 3.96667 13.9 4.2L11.5333 8.46667C11.4111 8.68889 11.2472 8.86111 11.0417 8.98333C10.8361 9.10556 10.6111 9.16667 10.3667 9.16667H5.40001L4.66667 10.5H12.6667V11.8333H4.66667C4.16667 11.8333 3.78889 11.6139 3.53334 11.175C3.27778 10.7361 3.26667 10.3 3.50001 9.86667L4.40001 8.23333L2.00001 3.16667H0.666672V1.83333H2.83334L3.46667 3.16667Z" fill="black"/>
</g>
</svg>
